<svg width="70.000000" height="73.255859" viewBox="0 0 70 73.2559" fill="none" xmlns="http://www.w3.org/2000/svg" xmlns:xlink="http://www.w3.org/1999/xlink">
	<desc>
			Created with Pixso.
	</desc>
	<defs>
		<radialGradient gradientTransform="translate(34.9999 59.3302) rotate(90) scale(2.60561 34.2674)" cx="0.000000" cy="0.000000" r="1.000000" id="paint_radial_9_496_0" gradientUnits="userSpaceOnUse">
			<stop stop-color="#060606"/>
			<stop stop-color="#060606" stop-opacity="0.000000"/>
		</radialGradient>
		<radialGradient gradientTransform="translate(12.9949 67.2439) rotate(90) scale(2.21267 2.21269)" cx="0.000000" cy="0.000000" r="1.000000" id="paint_radial_9_498_0" gradientUnits="userSpaceOnUse">
			<stop stop-color="#060606"/>
			<stop stop-color="#060606" stop-opacity="0.000000"/>
		</radialGradient>
		<radialGradient gradientTransform="translate(34.9999 5.4092) rotate(90) scale(4.67678 34.2674)" cx="0.000000" cy="0.000000" r="1.000000" id="paint_radial_9_500_0" gradientUnits="userSpaceOnUse">
			<stop stop-color="#060606"/>
			<stop stop-color="#060606" stop-opacity="0.000000"/>
		</radialGradient>
	</defs>
	<path id="Vector_233" d="M69.26 10.08L0.73 10.08L0.73 61.93L69.26 61.93L69.26 10.08Z" fill="#ECF4F7" fill-opacity="1.000000" fill-rule="nonzero"/>
	<path id="Vector_234" d="M0.73 61.93L0.73 69.74C0.73 71.28 1.97 72.52 3.5 72.52L66.49 72.52C68.02 72.52 69.26 71.28 69.26 69.74L69.26 61.93L0.73 61.93Z" fill="#EBDFD7" fill-opacity="1.000000" fill-rule="nonzero"/>
	<path id="Vector_235" d="M69.26 56.72L0.73 56.72L0.73 61.93L69.26 61.93L69.26 56.72Z" fill="url(#paint_radial_9_496_0)" fill-opacity="1.000000" fill-rule="nonzero"/>
	<path id="Vector_236" d="M12.99 69.45C14.21 69.45 15.2 68.46 15.2 67.24C15.2 66.01 14.21 65.03 12.99 65.03C11.77 65.03 10.78 66.01 10.78 67.24C10.78 68.46 11.77 69.45 12.99 69.45Z" fill="url(#paint_radial_9_498_0)" fill-opacity="1.000000" fill-rule="nonzero"/>
	<path id="Vector_237" d="M66.49 0.73L3.5 0.73C1.97 0.73 0.73 1.97 0.73 3.5L0.73 10.08L69.26 10.08L69.26 3.5C69.26 1.97 68.02 0.73 66.49 0.73Z" fill="url(#paint_radial_9_500_0)" fill-opacity="1.000000" fill-rule="nonzero"/>
	<path id="Vector_238" d="M7.23 7.02C8.12 7.02 8.85 6.3 8.85 5.4C8.85 4.51 8.12 3.79 7.23 3.79C6.34 3.79 5.61 4.51 5.61 5.4C5.61 6.3 6.34 7.02 7.23 7.02Z" fill="#ECF4F7" fill-opacity="1.000000" fill-rule="nonzero"/>
	<path id="Vector_239" d="M13.63 7.02C14.52 7.02 15.25 6.3 15.25 5.4C15.25 4.51 14.52 3.79 13.63 3.79C12.73 3.79 12.01 4.51 12.01 5.4C12.01 6.3 12.73 7.02 13.63 7.02Z" fill="#ECF4F7" fill-opacity="1.000000" fill-rule="nonzero"/>
	<path id="Vector_240" d="M20.02 7.02C20.92 7.02 21.64 6.3 21.64 5.4C21.64 4.51 20.92 3.79 20.02 3.79C19.13 3.79 18.41 4.51 18.41 5.4C18.41 6.3 19.13 7.02 20.02 7.02Z" fill="#ECF4F7" fill-opacity="1.000000" fill-rule="nonzero"/>
	<path id="Vector_241" d="M22.33 38.57L16.2 38.57C15.49 38.57 14.92 39.15 14.92 39.85C14.92 40.56 15.49 41.14 16.19 41.14L20.46 41.16C21.09 41.16 21.72 41.22 22.33 41.34L22.33 38.57Z" fill="#E65F2B" fill-opacity="0.344828" fill-rule="nonzero"/>
	<path id="Vector_242" d="M35 29.48C39.04 29.48 42.31 26.21 42.31 22.16C42.31 18.12 39.04 14.84 35 14.84C30.95 14.84 27.67 18.12 27.67 22.16C27.67 26.21 30.95 29.48 35 29.48Z" fill="#E65F2B" fill-opacity="0.344828" fill-rule="nonzero"/>
	<path id="Vector_243" d="M47.53 56.72L22.46 56.72C20.47 56.72 18.87 55.11 18.87 53.12L18.87 52.61C18.87 50.62 20.47 49.01 22.46 49.01L47.53 49.01C49.52 49.01 51.12 50.62 51.12 52.61L51.12 53.12C51.12 55.11 49.52 56.72 47.53 56.72Z" fill="#EBDFD7" fill-opacity="1.000000" fill-rule="nonzero"/>
	<path id="Vector_244" d="M39.63 49.01L30.36 49.01L30.36 56.72L39.63 56.72L39.63 49.01Z" fill="#E65F2B" fill-opacity="0.344828" fill-rule="nonzero"/>
	<path id="Vector_245" d="M47.66 38.57L53.79 38.57C54.5 38.57 55.07 39.15 55.07 39.85C55.07 40.56 54.5 41.14 53.8 41.14L49.53 41.16C48.9 41.16 48.27 41.22 47.66 41.34L47.66 38.57Z" fill="#E65F2B" fill-opacity="0.344828" fill-rule="nonzero"/>
	<path id="Vector_246" d="M7.23 3.06C5.93 3.06 4.88 4.11 4.88 5.4C4.88 6.7 5.93 7.75 7.23 7.75C8.53 7.75 9.58 6.7 9.58 5.4C9.58 4.11 8.53 3.06 7.23 3.06ZM7.23 6.29C6.74 6.29 6.35 5.89 6.35 5.4C6.35 4.92 6.74 4.52 7.23 4.52C7.72 4.52 8.11 4.92 8.11 5.4C8.11 5.89 7.72 6.29 7.23 6.29ZM13.63 3.06C12.33 3.06 11.28 4.11 11.28 5.4C11.28 6.7 12.33 7.75 13.63 7.75C14.92 7.75 15.98 6.7 15.98 5.4C15.98 4.11 14.92 3.06 13.63 3.06ZM13.63 6.29C13.14 6.29 12.74 5.89 12.74 5.4C12.74 4.92 13.14 4.52 13.63 4.52C14.11 4.52 14.51 4.92 14.51 5.4C14.51 5.89 14.11 6.29 13.63 6.29ZM20.02 3.06C18.73 3.06 17.67 4.11 17.67 5.4C17.67 6.7 18.73 7.75 20.02 7.75C21.32 7.75 22.37 6.7 22.37 5.4C22.37 4.11 21.32 3.06 20.02 3.06ZM20.02 6.29C19.54 6.29 19.14 5.89 19.14 5.4C19.14 4.92 19.54 4.52 20.02 4.52C20.51 4.52 20.91 4.92 20.91 5.4C20.91 5.89 20.51 6.29 20.02 6.29ZM0 32.34L0 31.54C0 31.14 0.32 30.81 0.73 30.81C1.13 30.81 1.46 31.14 1.46 31.54L1.46 32.34C1.46 32.75 1.13 33.08 0.73 33.08C0.32 33.08 0 32.75 0 32.34ZM66.49 0L3.5 0C1.57 0 0 1.57 0 3.5L0 28.94C0 29.34 0.32 29.67 0.73 29.67C1.13 29.67 1.46 29.34 1.46 28.94L1.46 10.81L68.53 10.81L68.53 61.2L1.46 61.2L1.46 35.83C1.46 35.42 1.13 35.09 0.73 35.09C0.32 35.09 0 35.42 0 35.83L0 69.74C0 71.68 1.57 73.25 3.5 73.25L66.49 73.25C68.42 73.25 70 71.68 70 69.74L70 3.5C70 1.57 68.42 0 66.49 0ZM68.53 69.74C68.53 70.87 67.61 71.79 66.49 71.79L3.5 71.79C2.38 71.79 1.46 70.87 1.46 69.74L1.46 62.66L68.53 62.66L68.53 69.74ZM68.53 9.35L1.46 9.35L1.46 3.5C1.46 2.38 2.38 1.46 3.5 1.46L66.49 1.46C67.61 1.46 68.53 2.38 68.53 3.5L68.53 9.35ZM14.19 39.71C14.15 40.28 14.34 40.82 14.72 41.23C15.1 41.64 15.63 41.87 16.19 41.87L20.46 41.89C21.04 41.89 21.61 41.95 22.18 42.05C22.72 42.16 23.28 42.32 23.81 42.52L27.83 44.09L27.83 47.07C27.83 47.48 28.16 47.81 28.57 47.81C28.97 47.81 29.3 47.48 29.3 47.07L29.3 43.8L29.3 43.59L29.3 35.43C29.3 35.02 28.97 34.7 28.57 34.7C28.16 34.7 27.83 35.02 27.83 35.43L27.83 42.52L24.34 41.16C23.92 41 23.49 40.86 23.06 40.75L23.06 39.3L24.81 39.3C25.75 39.3 26.53 38.52 26.53 37.57L26.53 34.36C26.53 32.08 28.39 30.22 30.67 30.22L39.32 30.22C41.6 30.22 43.46 32.08 43.46 34.36L43.46 37.57C43.46 38.52 44.24 39.3 45.18 39.3L46.93 39.3L46.93 40.75C46.5 40.86 46.07 41 45.65 41.16L42.16 42.52L42.16 35.43C42.16 35.02 41.83 34.7 41.42 34.7C41.02 34.7 40.69 35.02 40.69 35.43L40.69 43.59L40.69 47.07C40.69 47.48 41.02 47.81 41.42 47.81C41.83 47.81 42.16 47.48 42.16 47.07L42.16 44.09L46.18 42.52C46.71 42.32 47.25 42.16 47.8 42.06C48.36 41.95 48.95 41.89 49.53 41.89L53.8 41.87C54.36 41.87 54.89 41.64 55.27 41.23C55.65 40.82 55.84 40.28 55.8 39.71C55.73 38.66 54.82 37.83 53.74 37.83L53.37 37.83C53.47 37.57 53.53 37.29 53.53 37C53.53 35.73 52.5 34.7 51.23 34.7C49.96 34.7 48.93 35.73 48.93 37C48.93 37.29 48.99 37.57 49.09 37.83L45.18 37.83C45.04 37.83 44.92 37.72 44.92 37.57L44.92 34.36C44.92 31.36 42.57 28.91 39.61 28.76C41.68 27.3 43.05 24.89 43.05 22.16C43.05 17.72 39.44 14.11 35 14.11C30.55 14.11 26.94 17.72 26.94 22.16C26.94 24.89 28.31 27.3 30.38 28.76C27.42 28.91 25.07 31.36 25.07 34.36L25.07 37.57C25.07 37.72 24.95 37.83 24.81 37.83L20.9 37.83C21.01 37.57 21.06 37.29 21.06 37C21.06 35.73 20.03 34.7 18.76 34.7C17.49 34.7 16.46 35.73 16.46 37C16.46 37.29 16.52 37.57 16.62 37.83L16.25 37.83C15.17 37.83 14.26 38.66 14.19 39.71ZM51.23 36.16C51.69 36.16 52.06 36.54 52.06 37C52.06 37.46 51.69 37.83 51.23 37.83C50.77 37.83 50.39 37.46 50.39 37C50.39 36.54 50.77 36.16 51.23 36.16ZM48.39 39.3L53.74 39.3C54.05 39.3 54.32 39.53 54.34 39.81C54.35 39.97 54.3 40.12 54.2 40.23C54.09 40.35 53.95 40.41 53.8 40.41L49.53 40.43C49.14 40.43 48.77 40.45 48.39 40.49L48.39 39.3ZM28.41 22.16C28.41 18.53 31.36 15.58 35 15.58C38.63 15.58 41.58 18.53 41.58 22.16C41.58 25.8 38.63 28.75 35 28.75C31.36 28.75 28.41 25.8 28.41 22.16ZM18.76 36.16C19.22 36.16 19.6 36.54 19.6 37C19.6 37.46 19.22 37.83 18.76 37.83C18.3 37.83 17.93 37.46 17.93 37C17.93 36.54 18.3 36.16 18.76 36.16ZM21.6 39.3L21.6 40.49C21.22 40.45 20.85 40.43 20.46 40.43L16.2 40.41C16.04 40.41 15.9 40.35 15.8 40.23C15.69 40.12 15.64 39.97 15.65 39.81C15.67 39.53 15.94 39.3 16.25 39.3L21.6 39.3ZM62.25 67.24C62.25 66.83 62.58 66.5 62.99 66.5L63.9 66.5C64.31 66.5 64.64 66.83 64.64 67.24C64.64 67.64 64.31 67.97 63.9 67.97L62.99 67.97C62.58 67.97 62.25 67.64 62.25 67.24ZM6.09 67.97L10.14 67.97C10.47 69.24 11.62 70.18 12.99 70.18C14.36 70.18 15.51 69.24 15.84 67.97L60.14 67.97C60.54 67.97 60.87 67.64 60.87 67.24C60.87 66.83 60.54 66.5 60.14 66.5L15.84 66.5C15.51 65.24 14.36 64.29 12.99 64.29C11.62 64.29 10.47 65.24 10.14 66.5L6.09 66.5C5.68 66.5 5.35 66.83 5.35 67.24C5.35 67.64 5.68 67.97 6.09 67.97ZM12.99 65.76C13.8 65.76 14.47 66.42 14.47 67.24C14.47 68.05 13.8 68.72 12.99 68.72C12.17 68.72 11.51 68.05 11.51 67.24C11.51 66.42 12.17 65.76 12.99 65.76ZM8.58 56.72C8.58 57.13 8.9 57.45 9.31 57.45L22.46 57.45L47.53 57.45L60.68 57.45C61.09 57.45 61.41 57.13 61.41 56.72C61.41 56.32 61.09 55.99 60.68 55.99L50.77 55.99C51.45 55.22 51.86 54.22 51.86 53.12L51.86 52.61C51.86 50.22 49.92 48.28 47.53 48.28L22.46 48.28C20.07 48.28 18.13 50.22 18.13 52.61L18.13 53.12C18.13 54.22 18.54 55.22 19.22 55.99L9.31 55.99C8.9 55.99 8.58 56.32 8.58 56.72ZM39.63 55.31C40.03 55.31 40.36 54.98 40.36 54.58L40.36 49.75L47.53 49.75C49.11 49.75 50.39 51.03 50.39 52.61L50.39 53.12C50.39 54.7 49.11 55.99 47.53 55.99L31.1 55.99L31.1 53.6L38.89 53.6L38.89 54.58C38.89 54.98 39.22 55.31 39.63 55.31ZM19.6 52.61C19.6 51.03 20.88 49.74 22.46 49.74L38.89 49.74L38.89 52.13L31.1 52.13L31.1 51.1C31.1 50.7 30.77 50.37 30.36 50.37C29.96 50.37 29.63 50.7 29.63 51.1L29.63 55.99L22.46 55.99C20.88 55.99 19.6 54.7 19.6 53.12L19.6 52.61ZM5.18 57.45C4.77 57.45 4.45 57.13 4.45 56.72C4.45 56.32 4.77 55.99 5.18 55.99L5.95 55.99C6.35 55.99 6.68 56.32 6.68 56.72C6.68 57.13 6.35 57.45 5.95 57.45L5.18 57.45ZM64.04 57.45C63.64 57.45 63.31 57.13 63.31 56.72C63.31 56.32 63.64 55.99 64.04 55.99L64.81 55.99C65.22 55.99 65.54 56.32 65.54 56.72C65.54 57.13 65.22 57.45 64.81 57.45L64.04 57.45ZM19.39 25.21L19.39 26.08L20.26 26.08C20.67 26.08 21 26.41 21 26.81C21 27.22 20.67 27.55 20.26 27.55L19.39 27.55L19.39 28.42C19.39 28.83 19.06 29.16 18.66 29.16C18.25 29.16 17.92 28.83 17.92 28.42L17.92 27.55L17.05 27.55C16.64 27.55 16.31 27.22 16.31 26.81C16.31 26.41 16.64 26.08 17.05 26.08L17.92 26.08L17.92 25.21C17.92 24.8 18.25 24.47 18.66 24.47C19.06 24.47 19.39 24.8 19.39 25.21ZM52.07 25.21L52.07 26.08L52.94 26.08C53.35 26.08 53.68 26.41 53.68 26.81C53.68 27.22 53.35 27.55 52.94 27.55L52.07 27.55L52.07 28.42C52.07 28.83 51.74 29.16 51.33 29.16C50.93 29.16 50.6 28.83 50.6 28.42L50.6 27.55L49.73 27.55C49.32 27.55 48.99 27.22 48.99 26.81C48.99 26.41 49.32 26.08 49.73 26.08L50.6 26.08L50.6 25.21C50.6 24.8 50.93 24.47 51.33 24.47C51.74 24.47 52.07 24.8 52.07 25.21Z" fill="#E65F2B" fill-opacity="1.000000" fill-rule="nonzero"/>
</svg>
